Coordinates
version=1
nRows=29
nColumns=24
inDegrees=yes

Units are S.I. units (second, meters, Newtons, ...)
Angles are in degrees.

endheader
time	pelvis_tilt	pelvis_list	pelvis_rotation	pelvis_tx	pelvis_ty	pelvis_tz	hip_flexion_r	hip_adduction_r	hip_rotation_r	knee_angle_r	ankle_angle_r	subtalar_angle_r	mtp_angle_r	hip_flexion_l	hip_adduction_l	hip_rotation_l	knee_angle_l	ankle_angle_l	subtalar_angle_l	mtp_angle_l	lumbar_extension	lumbar_bending	lumbar_rotation
      0.55800000	      0.73904991	      3.55460297	      4.94743555	     -0.88603052	      0.99514615	      0.24922933	     21.57934477	     -1.99686995	     -6.31471584	      1.35784137	      3.63488761	    -13.35671445	      0.71321793	    -19.38365202	      5.15764958	      7.55257476	     -4.61155528	     10.93718494	    -11.40092101	      0.68474454	     -4.47005034	     -5.04472086	     -3.22307905
      0.56216667	      0.62321620	      3.51124396	      5.04912763	     -0.88001546	      0.99444339	      0.24927123	     21.78324636	     -1.96615759	     -6.13271228	      0.79408757	      3.65354256	    -13.53024617	      1.44596833	    -19.28592269	      5.06552601	      7.45819693	     -5.27988687	     11.04024721	    -11.07759780	      1.17410511	     -4.28661908	     -4.98370582	     -3.48608028
      0.56633333	      0.69469696	      3.41084813	      5.13607193	     -0.87389975	      0.99403977	      0.24930127	     21.74515179	     -1.85421237	     -5.96709902	      0.25787887	      3.72981057	    -13.68609226	      1.51829148	    -19.45946121	      4.90428315	      7.53565177	     -5.79725577	     11.02585028	    -11.10205834	      1.22557682	     -4.33624838	     -4.80123779	     -3.49023324
      0.57050000	      0.71120348	      3.32563914	      5.21662706	     -0.86775857	      0.99356582	      0.24937858	     21.75038640	     -1.75400048	     -5.73393649	     -0.26792854	      3.57854806	    -14.04566631	      7.34827395	    -19.47333237	      4.75255809	      7.31310247	     -6.51509422	     11.10843763	    -10.65096559	      5.89647691	     -4.28908970	     -4.64067075	     -3.63361811
      0.57466667	      0.76319999	      3.22532579	      5.30361924	     -0.86155354	      0.99320749	      0.24946347	     21.68082845	     -1.62738046	     -5.44606985	     -0.77091520	      3.43242497	    -14.45687881	      7.33994721	    -19.55932525	      4.58485297	      7.24828330	     -7.16324161	     11.08090741	    -10.44516049	      5.97352958	     -4.29639084	     -4.46658406	     -3.75121403
      0.57883333	      0.78352217	      3.11424921	      5.38845688	     -0.85528461	      0.99282841	      0.24954105	     21.65379264	     -1.49134579	     -5.21861088	     -1.32572338	      3.31608351	    -14.75316856	      7.34727751	    -19.57313663	      4.41339933	      7.16673121	     -7.89712783	     11.11465342	    -10.20783305	      6.05493623	     -4.24224454	     -4.27182260	     -3.85296444
      0.58300000	      0.78703227	      2.99506330	      5.46928922	     -0.84897687	      0.99247363	      0.24965349	     21.62436095	     -1.33996498	     -4.98429288	     -1.85304353	      3.03777394	    -15.09601552	      7.37021802	    -19.52574478	      4.22799618	      6.96947744	     -8.70542629	     11.08844941	     -9.81199762	      6.18421100	     -4.17324027	     -4.08483047	     -3.97140145
      0.58716667	      0.81007788	      2.87159788	      5.54124273	     -0.84260200	      0.99217968	      0.24978240	     21.56160012	     -1.17678072	     -4.76460352	     -2.38021410	      2.75183057	    -15.41857259	      7.41073928	    -19.48225065	      4.03653768	      6.74759661	     -9.54321993	     11.04839853	     -9.40816458	      6.35908873	     -4.11403996	     -3.88519372	     -4.06083526
      0.59133333	      0.83822743	      2.75363620	      5.61449545	     -0.83623611	      0.99193137	      0.24993158	     21.48079350	     -1.01598363	     -4.55469109	     -2.89346086	      2.43360244	    -15.72551574	      7.47443273	    -19.40685798	      3.84693088	      6.50616962	    -10.45294183	     10.95241488	     -8.99461084	      6.60494119	     -4.06747402	     -3.71020512	     -4.13527254
      0.59550000	      0.82524839	      2.60826630	      5.68025043	     -0.82976596	      0.99167277	      0.25007352	     21.44216864	     -0.82902282	     -4.38872407	     -3.41918695	      2.03573156	    -16.00610735	      7.53656011	    -19.27600062	      3.63650217	      6.26895631	    -11.38234271	     10.82940428	     -8.61646863	      6.84257625	     -3.94174795	     -3.47323149	     -4.20833590
      0.59966667	      0.86065530	      2.47923720	      5.72771181	     -0.82330731	      0.99148902	      0.25028002	     21.35457599	     -0.64763652	     -4.23335328	     -3.95812307	      1.70466061	    -16.25076182	      9.02545838	    -19.14375638	      3.42401892	      5.86949118	    -12.39964756	     10.62918307	     -8.10365126	     12.35084826	     -3.88793181	     -3.28029769	     -4.19868520
      0.60383333	      0.86315561	      2.33533462	      5.78646955	     -0.81681448	      0.99133870	      0.25047622	     21.26355062	     -0.45250550	     -4.04730179	     -4.42502067	      1.23322215	    -16.60184539	      9.01847490	    -18.95453049	      3.20701105	      5.58836242	    -13.46024846	     10.41898798	     -7.71958252	     12.42060121	     -3.78271524	     -3.06749411	     -4.31317234
      0.60800000	      0.87839503	      2.18080041	      5.81736194	     -0.81029956	      0.99122059	      0.25071748	     21.17650797	     -0.23983931	     -3.90258250	     -4.93092193	      0.80014360	    -16.85536654	      9.02590709	    -18.74918073	      2.97144138	      5.19044010	    -14.57085751	     10.16999694	     -7.20082924	     12.55748786	     -3.68740775	     -2.83478484	     -4.33065227
      0.61216667	      0.93519897	      2.01471797	      5.81715112	     -0.80376662	      0.99117902	      0.25101706	     21.05268650	     -0.00165293	     -3.75754022	     -5.45491232	      0.38785435	    -17.11493094	      9.06588113	    -18.56192823	      2.71599096	      4.71728295	    -15.72310392	      9.88060707	     -6.59978295	     12.97204956	     -3.64833106	     -2.58440071	     -4.34479477
      0.61633333	      0.92849740	      1.85008515	      5.82925061	     -0.79722886	      0.99110989	      0.25132113	     20.99373122	      0.22270033	     -3.64652447	     -5.97939052	     -0.03825329	    -17.33714537	      9.11345855	    -18.26106582	      2.46041611	      4.26281522	    -16.95000318	      9.53129382	     -6.04166265	     13.47816468	     -3.52434836	     -2.34692462	     -4.35087156
      0.62050000	      0.95681729	      1.67115538	      5.82114272	     -0.79068481	      0.99111271	      0.25166829	     20.89856935	      0.46981651	     -3.54685093	     -6.50738718	     -0.43364656	    -17.53769405	      9.17566346	    -17.97035405	      2.17916085	      3.76118159	    -18.22050883	      9.12161077	     -5.46148810	     14.21349399	     -3.43830400	     -2.08889846	     -4.33594452
      0.62466667	      0.89595854	      1.51388436	      5.81502457	     -0.78418552	      0.99103163	      0.25200517	     20.93361750	      0.67557748	     -3.50922133	     -7.11063977	     -0.81370917	    -17.66255661	      9.20239408	    -17.54219397	      1.93600435	      3.33625367	    -19.56327448	      8.68429225	     -5.02206028	     14.61573852	     -3.25059965	     -1.86734915	     -4.29168013
      0.62883333	      0.91311317	      1.32503003	      5.77996233	     -0.77764248	      0.99110934	      0.25243432	     20.83697545	      0.94081572	     -3.37520965	     -7.61244932	     -1.22988334	    -17.91797755	      9.57408904	    -17.18552303	      1.63177861	      2.80820646	    -20.89162545	      8.01293408	     -4.60325660	     21.50269636	     -3.14931003	     -1.60613661	     -4.25452962
      0.63300000	      0.91292757	      1.14789357	      5.74081862	     -0.77116521	      0.99117165	      0.25283925	     20.82099931	      1.17259942	     -3.40588148	     -8.25064308	     -1.44747617	    -17.82648483	      9.56796685	    -16.75962753	      1.34007574	      2.29584261	    -22.31913158	      7.42834928	     -4.07385300	     21.57815727	     -3.03682019	     -1.35280656	     -4.19296692
      0.63716667	      0.91307732	      0.96340252	      5.68372264	     -0.76469278	      0.99127795	      0.25330673	     20.78019371	      1.42407784	     -3.35919560	     -8.83760438	     -1.68403551	    -17.83717592	      9.55865451	    -16.31146610	      1.03201791	      1.76803692	    -23.77089333	      6.72440631	     -3.59261116	     21.69627253	     -2.91301643	     -1.10147224	     -4.12798136
      0.64133333	      0.91542564	      0.77972959	      5.61657166	     -0.75828166	      0.99140457	      0.25381017	     20.75756139	      1.67469725	     -3.33396999	     -9.46765301	     -1.87534467	    -17.85518894	      9.54419451	    -15.82682241	      0.71285815	      1.23237182	    -25.27692519	      6.01921378	     -3.08533262	     21.87371117	     -2.81637471	     -0.85359275	     -4.04932913
      0.64550000	      0.91076080	      0.59863168	      5.53531915	     -0.75191542	      0.99154805	      0.25434612	     20.75809836	      1.92285137	     -3.32137840	    -10.13265846	     -2.02091655	    -17.85268338	      9.52044148	    -15.31425097	      0.39419148	      0.72474817	    -26.80504717	      5.25009953	     -2.61550066	     22.12127591	     -2.71569425	     -0.59226124	     -3.95996946
      0.64966667	      0.92278620	      0.41421613	      5.45227366	     -0.74557962	      0.99175177	      0.25489846	     20.71023214	      2.17781061	     -3.29079404	    -10.73577344	     -2.11246838	    -17.78371434	      9.49620939	    -14.78833491	      0.06013251	      0.22595496	    -28.36992478	      4.38490612	     -2.22392516	     22.35314419	     -2.62352862	     -0.34843964	     -3.87811578
      0.65383333	      0.92131386	      0.23580012	      5.36062114	     -0.73932566	      0.99194045	      0.25548828	     20.71597011	      2.42361967	     -3.29996468	    -11.42265786	     -2.15828770	    -17.73417001	      9.45351774	    -14.21932153	     -0.27275627	     -0.24153881	    -29.96779123	      3.53478803	     -1.81961937	     22.69809545	     -2.54902381	     -0.09916820	     -3.77571887
      0.65800000	      0.92668277	      0.05554009	      5.26546856	     -0.73310454	      0.99217203	      0.25609313	     20.68667736	      2.67485587	     -3.28825549	    -12.05233076	     -2.16382280	    -17.64277725	      9.40351047	    -13.63933333	     -0.61264848	     -0.67877688	    -31.58059997	      2.61904029	     -1.49823819	     23.05473472	     -2.47235402	      0.14025030	     -3.67835698
      0.66216667	      0.98239024	     -0.12430052	      5.15442343	     -0.72692143	      0.99250938	      0.25673716	     20.58330041	      2.93689338	     -3.26260922	    -12.64411849	     -2.09955592	    -17.49745263	      8.40958325	    -13.09983563	     -0.96852748	     -1.13196361	    -33.17855876	      1.58711990	     -1.28337031	     28.89291785	     -2.46331506	      0.38976322	     -3.44586476
      0.66633333	      0.95440382	     -0.28571741	      5.07026990	     -0.72082817	      0.99275275	      0.25735260	     20.57243482	      3.16312390	     -3.25629860	    -13.24285811	     -2.05661067	    -17.42318574	      8.41322742	    -12.43405463	     -1.28969947	     -1.46222730	    -34.82947856	      0.63373374	     -1.11486195	     28.90023368	     -2.35685690	      0.59798468	     -3.48963373
      0.67050000	      0.96603411	     -0.45247926	      4.97838642	     -0.71479495	      0.99306872	      0.25799214	     20.50458092	      3.40186182	     -3.25406297	    -13.80936837	     -1.96148166	    -17.30459295	      8.41006657	    -11.79553328	     -1.62606751	     -1.78483571	    -36.48317896	     -0.31322578	     -0.95347795	     28.89836178	     -2.30942219	      0.81777930	     -3.41989583
      0.67466667	      0.97510166	     -0.61154590	      4.89275972	     -0.70880208	      0.99342565	      0.25863222	     20.40954140	      3.63384789	     -3.24624735	    -14.31664417	     -1.84407423	    -17.19103588	      8.40389487	    -11.14074267	     -1.95537119	     -2.06619249	    -38.13045817	     -1.26493540	     -0.87193189	     28.87997579	     -2.25589215	      1.02322921	     -3.34823481
